HIERARCHY
ROOT Hips
{
	OFFSET -0.001795 -0.223333 0.028219
	CHANNELS 6 Xposition Yposition Zposition Zrotation Yrotation Xrotation 
	JOINT LeftUpLeg
	{
		OFFSET 0.069520 -0.091406 -0.006815
		CHANNELS 3 Zrotation Yrotation Xrotation
		JOINT LeftLeg
		{
			OFFSET 0.034277 -0.375199 -0.004496
			CHANNELS 3 Zrotation Yrotation Xrotation
			JOINT LeftFoot
			{
				OFFSET -0.013596 -0.397961 -0.043693
				CHANNELS 3 Zrotation Yrotation Xrotation
				JOINT LeftToe
				{
					OFFSET 0.026358 -0.055791 0.119288
					CHANNELS 3 Zrotation Yrotation Xrotation
					End Site
					{
						OFFSET 0.000000 0.000000 0.000000
					}
				}
			}
		}
	}
	JOINT RightUpLeg
	{
		OFFSET -0.067670 -0.090522 -0.004320
		CHANNELS 3 Zrotation Yrotation Xrotation
		JOINT RightLeg
		{
			OFFSET -0.038290 -0.382569 -0.008850
			CHANNELS 3 Zrotation Yrotation Xrotation
			JOINT RightFoot
			{
				OFFSET 0.015774 -0.398415 -0.042312
				CHANNELS 3 Zrotation Yrotation Xrotation
				JOINT RightToe
				{
					OFFSET -0.025372 -0.048144 0.123348
					CHANNELS 3 Zrotation Yrotation Xrotation
					End Site
					{
						OFFSET 0.000000 0.000000 0.000000
					}
				}
			}
		}
	}
	JOINT Spine
	{
		OFFSET -0.002533 0.108963 -0.026696
		CHANNELS 3 Zrotation Yrotation Xrotation
		JOINT Spine1
		{
			OFFSET 0.005487 0.135180 0.001092
			CHANNELS 3 Zrotation Yrotation Xrotation
			JOINT Spine2
			{
				OFFSET 0.001457 0.052922 0.025425
				CHANNELS 3 Zrotation Yrotation Xrotation
				JOINT Neck
				{
					OFFSET -0.002778 0.213870 -0.042857
					CHANNELS 3 Zrotation Yrotation Xrotation
					JOINT Head
					{
						OFFSET 0.005152 0.064970 0.051349
						CHANNELS 3 Zrotation Yrotation Xrotation
						End Site
						{
							OFFSET 0.000000 0.000000 0.000000
						}
					}
				}
				JOINT LeftShoulder
				{
					OFFSET 0.078845 0.121749 -0.034090
					CHANNELS 3 Zrotation Yrotation Xrotation
					JOINT LeftArm
					{
						OFFSET 0.090977 0.030469 -0.008868
						CHANNELS 3 Zrotation Yrotation Xrotation
						JOINT LeftForeArm
						{
							OFFSET 0.259612 -0.012772 -0.027456
							CHANNELS 3 Zrotation Yrotation Xrotation
							JOINT LeftHand
							{
								OFFSET 0.249234 0.008986 -0.001171
								CHANNELS 3 Zrotation Yrotation Xrotation
								End Site
								{
									OFFSET 0.000000 0.000000 0.000000
								}
							}
						}
					}
				}
				JOINT RightShoulder
				{
					OFFSET -0.081759 0.118833 -0.038615
					CHANNELS 3 Zrotation Yrotation Xrotation
					JOINT RightArm
					{
						OFFSET -0.096012 0.032551 -0.009143
						CHANNELS 3 Zrotation Yrotation Xrotation
						JOINT RightForeArm
						{
							OFFSET -0.253742 -0.013329 -0.021401
							CHANNELS 3 Zrotation Yrotation Xrotation
							JOINT RightHand
							{
								OFFSET -0.255298 0.007772 -0.005559
								CHANNELS 3 Zrotation Yrotation Xrotation
								End Site
								{
									OFFSET 0.000000 0.000000 0.000000
								}
							}
						}
					}
				}
			}
		}
	}
}
MOTION
Frames: 14
Frame Time: 0.050000
-0.073039 0.959213 0.012167 -2.631049 -10.448641 3.322188 6.673919 0.159200 2.744045 -4.245756 0.551049 -5.577966 17.847880 28.357870 27.813630 0.000000 0.000000 0.000000 -2.490580 1.087289 -11.528520 1.376696 -0.078276 1.101712 -3.339344 -14.996594 23.323797 0.000000 0.000000 0.000000 1.775747 -0.881077 24.418299 5.912324 -0.409329 -29.727187 -1.790986 -8.288308 23.790410 -6.921213 3.460982 -23.908272 0.000000 0.000000 0.000000 -15.063179 -24.908732 14.869300 -34.952120 -66.319054 15.954117 20.933919 -18.384420 -2.318492 0.000000 0.000000 0.000000 -5.305104 27.496904 8.195414 31.089375 51.968185 5.732828 -26.878143 24.440006 -5.276509 0.000000 0.000000 0.000000 
-0.074094 0.958850 0.009014 -2.546235 -10.493162 3.628489 7.273814 0.113418 1.786178 -5.277514 0.648449 -4.837281 17.915511 28.427612 27.736236 0.000000 0.000000 0.000000 -2.209758 1.162515 -12.124627 1.339088 -0.061682 1.484365 -3.953051 -15.742228 22.500900 0.000000 0.000000 0.000000 1.641825 -0.850105 24.542162 5.556415 -0.397286 -29.187827 -0.995144 -7.308654 23.634079 -7.140022 3.838253 -21.980716 0.000000 0.000000 0.000000 -13.461051 -26.976577 15.164456 -32.109813 -68.021840 15.085250 21.937879 -14.589712 -1.952720 0.000000 0.000000 0.000000 -7.238059 28.424316 8.237907 25.201603 54.828498 3.873009 -23.873408 18.453645 -3.278911 0.000000 0.000000 0.000000 
-0.074893 0.958484 0.008141 -2.632258 -10.781261 3.576363 7.386938 0.117675 1.712728 -5.265567 0.652843 -4.564731 18.135722 28.648880 27.803961 0.000000 0.000000 0.000000 -2.078199 1.191430 -12.315647 1.155825 -0.019828 2.136910 -3.304055 -14.720293 21.646008 0.000000 0.000000 0.000000 1.887365 -0.897835 25.136733 4.932336 -0.315466 -28.929282 -0.417643 -7.224294 23.666995 -6.711307 3.646942 -20.300746 0.000000 0.000000 0.000000 -13.752666 -25.978184 14.785868 -33.120638 -66.728985 15.103211 22.090331 -16.840366 -2.273419 0.000000 0.000000 0.000000 -8.078339 28.120446 8.075548 24.772038 54.800751 3.601106 -24.483074 20.515160 -3.829348 0.000000 0.000000 0.000000 
-0.075205 0.958240 0.009535 -2.531697 -10.902188 3.951152 6.713739 0.101288 1.425599 -4.316750 0.559427 -4.624235 18.324449 28.811364 27.983331 0.000000 0.000000 0.000000 -2.258477 1.270131 -13.143240 1.371100 -0.012114 2.915899 -3.527669 -15.051700 21.518687 0.000000 0.000000 0.000000 1.950764 -0.903770 24.761755 4.405564 -0.178219 -29.326239 -0.271045 -8.007640 24.888772 -7.044305 3.795495 -19.252338 0.000000 0.000000 0.000000 -14.762559 -24.394526 14.551854 -36.207401 -63.688400 15.416986 23.960213 -22.529710 -3.316919 0.000000 0.000000 0.000000 -7.385046 26.649917 7.822612 29.465740 52.304271 4.847333 -30.068269 29.631796 -7.495141 0.000000 0.000000 0.000000 
-0.075798 0.958123 0.012882 -2.323481 -10.845192 4.402567 6.175232 0.113276 1.883421 -3.779500 0.516048 -6.003835 18.217713 28.656880 28.203396 0.000000 0.000000 0.000000 -2.457203 1.313482 -13.669170 0.929766 0.055038 3.402236 -3.029549 -14.266834 21.177479 0.000000 0.000000 0.000000 2.287144 -0.978133 23.956944 4.411418 -0.188926 -29.143293 -0.965725 -8.559188 25.250767 -6.764630 3.595950 -18.213122 0.000000 0.000000 0.000000 -17.010282 -20.863530 13.648290 -41.862620 -58.100591 15.453567 25.732086 -33.867668 -5.192935 0.000000 0.000000 0.000000 -5.716707 22.986657 7.061806 37.864312 44.896587 6.024445 -42.257087 49.979942 -20.266311 0.000000 0.000000 0.000000 
-0.077203 0.957812 0.017469 -2.101652 -11.195286 4.549182 5.378126 0.145433 2.353883 -2.834527 0.449424 -6.549714 18.422108 28.802426 28.591607 0.000000 0.000000 0.000000 -3.055431 1.275521 -13.620688 1.277045 0.029613 3.686650 -2.271306 -12.985009 20.215742 0.000000 0.000000 0.000000 2.097729 -0.906503 23.415079 4.881355 -0.258248 -29.225414 -1.620587 -9.489113 26.103813 -6.408961 3.216671 -17.545918 0.000000 0.000000 0.000000 -19.440808 -15.683792 11.879195 -45.832158 -50.625285 13.083544 25.980355 -50.142621 -7.125487 0.000000 0.000000 0.000000 -4.102761 17.780307 5.728261 43.028070 34.832023 4.150051 -73.605052 72.957864 -59.399992 0.000000 0.000000 0.000000 
-0.079986 0.957611 0.021950 -1.846106 -11.269768 4.691498 5.015968 0.158101 2.523374 -2.487427 0.424715 -6.637155 18.431983 28.767212 28.818503 0.000000 0.000000 0.000000 -3.150553 1.248535 -13.389503 0.938386 0.085454 4.085712 -1.748139 -11.770782 18.497279 0.000000 0.000000 0.000000 1.608882 -0.779729 22.049950 5.922398 -0.500200 -28.611579 -2.592034 -10.343241 26.504527 -5.635983 2.583412 -16.733200 0.000000 0.000000 0.000000 -22.278406 -11.131004 10.353621 -47.441507 -42.695878 9.175218 21.500259 -63.883026 -5.628113 0.000000 0.000000 0.000000 -2.667750 13.340380 4.398989 44.379263 23.789867 0.821980 -161.634263 73.410533 -159.400023 0.000000 0.000000 0.000000 
-0.084147 0.956832 0.025055 -1.871803 -11.343228 4.683827 5.040882 0.174587 2.777398 -2.099307 0.394116 -6.586381 18.498816 28.825367 28.888458 0.000000 0.000000 0.000000 -3.075670 1.230542 -13.143698 0.829526 0.116885 4.486150 -1.077275 -10.356790 17.237832 0.000000 0.000000 0.000000 1.452609 -0.734188 21.163184 6.686917 -0.639209 -28.565850 -3.686575 -10.824521 27.454486 -5.313692 2.247208 -16.516501 0.000000 0.000000 0.000000 -23.768077 -7.121989 8.511936 -49.524595 -36.590964 6.460520 9.269718 -72.034609 3.235663 0.000000 0.000000 0.000000 -1.241851 9.102229 2.946139 44.970623 16.055301 -1.654224 173.833044 60.364057 163.695426 0.000000 0.000000 0.000000 
-0.089050 0.956319 0.026361 -2.038840 -11.679825 4.397470 5.521530 0.182510 2.865925 -2.177234 0.381927 -5.755395 18.738528 29.048671 29.038579 0.000000 0.000000 0.000000 -2.550130 1.199935 -12.534818 0.750867 0.133744 4.613534 -0.841909 -9.611675 15.945615 0.000000 0.000000 0.000000 1.206903 -0.662841 20.212157 7.051858 -0.759521 -28.134408 -4.362311 -11.543799 28.012897 -4.721814 1.674849 -16.390408 0.000000 0.000000 0.000000 -25.280049 -4.350655 7.417004 -49.555464 -32.190603 4.022292 0.100324 -75.684956 11.176849 0.000000 0.000000 0.000000 -0.132496 6.076916 1.766876 45.235710 10.637542 -3.454239 168.949619 54.239880 151.430520 0.000000 0.000000 0.000000 
-0.093991 0.955862 0.026180 -2.158279 -11.814306 4.355237 6.122809 0.168606 2.640798 -2.472093 0.394686 -5.085795 18.836403 29.123302 29.128850 0.000000 0.000000 0.000000 -2.149785 1.209499 -12.409730 0.743808 0.144343 4.799087 -0.669727 -9.089789 15.185701 0.000000 0.000000 0.000000 1.447262 -0.704478 20.011674 7.500869 -0.831297 -28.233051 -5.195555 -11.993358 28.541039 -4.097991 1.097022 -16.761657 0.000000 0.000000 0.000000 -26.389615 -2.971618 7.017651 -50.093012 -30.242820 2.950104 0.785214 -76.454789 11.287337 0.000000 0.000000 0.000000 0.230376 4.362966 1.098204 46.214097 7.768644 -4.538860 164.885559 52.654449 141.750143 0.000000 0.000000 0.000000 
-0.098469 0.955902 0.025021 -2.315462 -12.528527 4.184561 6.624025 0.178352 2.546538 -2.701373 0.407916 -4.316994 19.258296 29.437523 29.678994 0.000000 0.000000 0.000000 -1.791084 1.219574 -12.283662 0.803752 0.140146 4.789920 -0.114055 -8.187950 15.019824 0.000000 0.000000 0.000000 1.669576 -0.719665 19.831964 7.588770 -0.901662 -27.835802 -5.550246 -12.334941 28.674625 -4.383988 1.124207 -17.779319 0.000000 0.000000 0.000000 -26.763265 -2.196377 6.862633 -51.062372 -30.794425 3.311620 5.085339 -75.106579 8.071162 0.000000 0.000000 0.000000 0.931421 3.483236 0.593736 46.432719 7.015450 -4.771077 161.852013 55.406289 137.124657 0.000000 0.000000 0.000000 
-0.102720 0.956175 0.023187 -2.493902 -13.059958 4.036145 7.208986 0.199187 2.707343 -2.999641 0.439730 -4.155060 19.489513 29.556226 30.191310 0.000000 0.000000 0.000000 -1.433856 1.207160 -11.980847 0.853067 0.139988 4.852926 0.465733 -6.915299 14.160572 0.000000 0.000000 0.000000 2.240743 -0.814568 20.070222 7.616406 -0.955005 -27.535612 -5.799119 -12.389044 28.486128 -4.052328 0.808901 -18.516884 0.000000 0.000000 0.000000 -27.394873 -2.238507 7.163510 -51.699250 -32.210927 4.035152 10.033111 -73.803314 4.330756 0.000000 0.000000 0.000000 1.530626 3.732930 0.500217 46.339129 7.253114 -4.573898 159.872140 58.538452 135.611858 0.000000 0.000000 0.000000 
-0.107009 0.956198 0.020700 -2.363496 -13.549182 4.382132 7.347469 0.182697 2.187138 -3.082382 0.449058 -3.970421 19.766948 29.684359 30.791639 0.000000 0.000000 0.000000 -1.366117 1.265646 -12.430858 0.908662 0.129440 4.714284 0.808660 -6.318994 14.002324 0.000000 0.000000 0.000000 2.674961 -0.886897 20.456666 7.507670 -0.933923 -27.513320 -5.695258 -12.132429 28.242110 -4.548175 1.092827 -19.872170 0.000000 0.000000 0.000000 -27.470919 -3.460913 8.033218 -51.995148 -34.775126 5.403563 16.315445 -72.257170 -0.412730 0.000000 0.000000 0.000000 1.780531 4.754218 0.776648 46.495116 8.204623 -4.205406 158.505356 60.797430 135.056474 0.000000 0.000000 0.000000 
-0.111703 0.956547 0.017797 -2.409055 -13.915598 4.766719 7.544530 0.175057 1.917128 -2.851321 0.430203 -4.289298 19.928628 29.679575 31.455742 0.000000 0.000000 0.000000 -1.082922 1.324036 -12.775135 0.834631 0.135107 4.612171 1.314360 -5.295216 13.616521 0.000000 0.000000 0.000000 3.268780 -1.000707 20.830096 7.306978 -0.896166 -27.531116 -5.457486 -11.764975 27.610132 -4.633949 1.197641 -19.993719 0.000000 0.000000 0.000000 -27.484802 -5.023116 9.024508 -52.163756 -37.355137 6.835817 21.101544 -70.483459 -3.931188 0.000000 0.000000 0.000000 2.194864 6.538524 1.297326 45.867039 9.904691 -3.440653 159.486459 64.343380 139.440989 0.000000 0.000000 0.000000 
